<?xml version="1.0" encoding="utf-8"?>
<!-- Generator: Adobe Illustrator 26.3.1, SVG Export Plug-In . SVG Version: 6.00 Build 0)  -->
<svg version="1.1" id="Layer_1" xmlns="http://www.w3.org/2000/svg" xmlns:xlink="http://www.w3.org/1999/xlink" x="0px" y="0px"
	 viewBox="0 0 489.3 165.4" style="enable-background:new 0 0 489.3 165.4;" xml:space="preserve">
<style type="text/css">
	.st0{fill:#000000;}
</style>
<g>
	<path class="st0" d="M65.2,126.4H0.1v-88h64.3v15.6H16.8v18.8h40.6v15.6H16.8v22.4h48.4L65.2,126.4L65.2,126.4z"/>
	<path class="st0" d="M121.5,120.4c-4.3,4.6-10.9,7.4-20,7.4c-13.8,0-26.5-7-26.5-21.2S87.3,88,101.7,86.8c10.9-1,18.6-2.3,18.6-7.6
		c0-3.4-4.4-6.2-11.9-6.2c-6,0-12.8,2.7-14.3,8.2H77.4c1.6-12.4,13.6-21.7,30.7-21.7c26.5,0,28.5,17.1,28.5,22.3v34
		c0,3.2,1,8.1,1.9,10.6h-15.3C122.4,124.8,121.9,122.8,121.5,120.4L121.5,120.4z M121,95c-3.6,2.3-9,3.4-15.8,4.2
		c-8.2,0.9-13.3,2.7-13.3,7.5c0,3.7,4.3,6.2,11,6.2c10,0,18.1-3.4,18.1-11.8L121,95L121,95z"/>
	<path class="st0" d="M178.9,128c-16.6,0-28.9-8.8-30.9-22.8h17c2.3,5.6,9,7.6,13.9,7.6c6.7,0,11.8-2,11.8-5.8s-2.3-5.2-13.7-7
		c-11.7-1.8-27.2-4.9-27.2-19.5c0-10.3,9-20.9,27.9-20.9c15,0,26.1,8.1,28.3,20.4h-17.4c-1-3-4.7-5.4-10.9-5.4
		c-7.7,0-10.9,2.8-10.9,5.2c0,3.4,4.8,4.6,12.9,5.8c16.2,2.7,27.9,6.2,27.9,20.4C207.6,118.8,195.6,128,178.9,128L178.9,128z"/>
	<path class="st0" d="M232.6,119.8l-22.3-58.7h17.8l16,47.1l15.6-47.1h17.9c0,0-16.4,44.2-23.8,59.7c-7.3,15.5-21.5,21.7-35.2,20.8
		v-15.2C226,126.9,229.9,125.4,232.6,119.8L232.6,119.8z"/>
	<g>
		<polygon class="st0" points="339.5,92 364.1,92 351.8,55.8 		"/>
		<path class="st0" d="M435.1,52.8h-15.8v56.8h15.8c19.9,0,22.9-17.9,22.9-28.5C458,68.1,454,52.8,435.1,52.8z"/>
		<path class="st0" d="M294.8,17.6v130.2h194.5V17.6H294.8z M375.4,125.2l-6-17.6h-35.1l-6,17.6h-17.8l30.7-88h21.2l30.7,88H375.4
			L375.4,125.2z M435.1,125.2h-32.6v-88h32.6c24.5,0,39.7,16.9,39.7,44S459.2,125.2,435.1,125.2L435.1,125.2z"/>
	</g>
</g>
</svg>
